<svg xmlns="http://www.w3.org/2000/svg" width="24" height="24" viewBox="0 0 24 24" fill="none">
  <!-- gpu-ranking GPU 天梯图 -->
  <path fill="none" d="M5.5 5.5H18.5C19.6 5.5 20.5 6.4 20.5 7.5V16.5C20.5 17.6 19.6 18.5 18.5 18.5H5.5C4.4 18.5 3.5 17.6 3.5 16.5V7.5C3.5 6.4 4.4 5.5 5.5 5.5Z" stroke="#107C10" stroke-width="1.5" stroke-linecap="round" stroke-linejoin="round"/>
  <path fill="none" d="M6.8 12C6.8 10.34 8.14 9 9.8 9C11.46 9 12.8 10.34 12.8 12C12.8 13.66 11.46 15 9.8 15C8.14 15 6.8 13.66 6.8 12Z" stroke="#107C10" stroke-width="1.5" stroke-linecap="round" stroke-linejoin="round"/>
  <path fill="none" d="M16.5 9V15M14.2 11.3L16.5 9L18.8 11.3" stroke="#6BB700" stroke-width="1.5" stroke-linecap="round" stroke-linejoin="round"/>
</svg>
